<mxfile host="app.diagrams.net" modified="2023-11-27T02:07:18.865Z" agent="Mozilla/5.0 (Macintosh; Intel Mac OS X 10_15_7) AppleWebKit/537.36 (KHTML, like Gecko) Chrome/119.0.0.0 Safari/537.36" etag="PFdA723NQePr1UO2GMvn" version="22.1.4" type="github">
  <diagram name="第 1 页" id="IrOaD0ugSm4VNV1ufrcn">
    <mxGraphModel dx="719" dy="506" grid="1" gridSize="10" guides="1" tooltips="1" connect="1" arrows="1" fold="1" page="1" pageScale="1" pageWidth="827" pageHeight="1169" math="0" shadow="0">
      <root>
        <mxCell id="0" />
        <mxCell id="1" parent="0" />
        <mxCell id="AjmC-OGkHX0ekNedTrzZ-1" value="用户" style="swimlane;whiteSpace=wrap;html=1;" vertex="1" parent="1">
          <mxGeometry x="20" y="40" width="190" height="660" as="geometry" />
        </mxCell>
        <mxCell id="AjmC-OGkHX0ekNedTrzZ-6" value="" style="edgeStyle=orthogonalEdgeStyle;rounded=0;orthogonalLoop=1;jettySize=auto;html=1;" edge="1" parent="AjmC-OGkHX0ekNedTrzZ-1" source="AjmC-OGkHX0ekNedTrzZ-4" target="AjmC-OGkHX0ekNedTrzZ-5">
          <mxGeometry relative="1" as="geometry" />
        </mxCell>
        <mxCell id="AjmC-OGkHX0ekNedTrzZ-4" value="" style="shape=umlActor;verticalLabelPosition=bottom;verticalAlign=top;html=1;outlineConnect=0;" vertex="1" parent="AjmC-OGkHX0ekNedTrzZ-1">
          <mxGeometry x="80" y="30" width="20" height="30" as="geometry" />
        </mxCell>
        <mxCell id="AjmC-OGkHX0ekNedTrzZ-41" style="edgeStyle=orthogonalEdgeStyle;rounded=0;orthogonalLoop=1;jettySize=auto;html=1;exitX=0.5;exitY=1;exitDx=0;exitDy=0;" edge="1" parent="AjmC-OGkHX0ekNedTrzZ-1" source="AjmC-OGkHX0ekNedTrzZ-5" target="AjmC-OGkHX0ekNedTrzZ-10">
          <mxGeometry relative="1" as="geometry" />
        </mxCell>
        <mxCell id="AjmC-OGkHX0ekNedTrzZ-5" value="注册" style="whiteSpace=wrap;html=1;verticalAlign=top;" vertex="1" parent="AjmC-OGkHX0ekNedTrzZ-1">
          <mxGeometry x="30" y="90" width="120" height="30" as="geometry" />
        </mxCell>
        <mxCell id="AjmC-OGkHX0ekNedTrzZ-42" style="edgeStyle=orthogonalEdgeStyle;rounded=0;orthogonalLoop=1;jettySize=auto;html=1;exitX=0.5;exitY=1;exitDx=0;exitDy=0;entryX=0.5;entryY=0;entryDx=0;entryDy=0;" edge="1" parent="AjmC-OGkHX0ekNedTrzZ-1" source="AjmC-OGkHX0ekNedTrzZ-10" target="AjmC-OGkHX0ekNedTrzZ-14">
          <mxGeometry relative="1" as="geometry" />
        </mxCell>
        <mxCell id="AjmC-OGkHX0ekNedTrzZ-10" value="填写手机号与姓名" style="whiteSpace=wrap;html=1;verticalAlign=top;" vertex="1" parent="AjmC-OGkHX0ekNedTrzZ-1">
          <mxGeometry x="30" y="160" width="120" height="30" as="geometry" />
        </mxCell>
        <mxCell id="AjmC-OGkHX0ekNedTrzZ-14" value="通过验证码进行注册" style="whiteSpace=wrap;html=1;verticalAlign=top;" vertex="1" parent="AjmC-OGkHX0ekNedTrzZ-1">
          <mxGeometry x="30" y="230" width="120" height="30" as="geometry" />
        </mxCell>
        <mxCell id="AjmC-OGkHX0ekNedTrzZ-18" value="真写姓名与身份证号" style="rounded=0;whiteSpace=wrap;html=1;" vertex="1" parent="AjmC-OGkHX0ekNedTrzZ-1">
          <mxGeometry x="30" y="310" width="120" height="30" as="geometry" />
        </mxCell>
        <mxCell id="AjmC-OGkHX0ekNedTrzZ-33" value="完成" style="whiteSpace=wrap;html=1;verticalAlign=top;" vertex="1" parent="AjmC-OGkHX0ekNedTrzZ-1">
          <mxGeometry x="30" y="575" width="120" height="30" as="geometry" />
        </mxCell>
        <mxCell id="AjmC-OGkHX0ekNedTrzZ-2" value="消消乐注册流程" style="text;html=1;strokeColor=none;fillColor=none;align=center;verticalAlign=middle;whiteSpace=wrap;rounded=0;" vertex="1" parent="1">
          <mxGeometry x="20" y="10" width="130" height="30" as="geometry" />
        </mxCell>
        <mxCell id="AjmC-OGkHX0ekNedTrzZ-3" value="消消乐平台" style="swimlane;whiteSpace=wrap;html=1;" vertex="1" parent="1">
          <mxGeometry x="210" y="40" width="190" height="660" as="geometry" />
        </mxCell>
        <mxCell id="AjmC-OGkHX0ekNedTrzZ-12" value="是否进行&lt;br&gt;实名认证" style="rhombus;whiteSpace=wrap;html=1;" vertex="1" parent="AjmC-OGkHX0ekNedTrzZ-3">
          <mxGeometry x="55" y="205" width="80" height="80" as="geometry" />
        </mxCell>
        <mxCell id="AjmC-OGkHX0ekNedTrzZ-22" value="发起认证" style="whiteSpace=wrap;html=1;verticalAlign=top;" vertex="1" parent="AjmC-OGkHX0ekNedTrzZ-3">
          <mxGeometry x="35" y="370" width="120" height="30" as="geometry" />
        </mxCell>
        <mxCell id="AjmC-OGkHX0ekNedTrzZ-30" value="认证完成" style="whiteSpace=wrap;html=1;verticalAlign=top;" vertex="1" parent="AjmC-OGkHX0ekNedTrzZ-3">
          <mxGeometry x="35" y="450" width="120" height="30" as="geometry" />
        </mxCell>
        <mxCell id="AjmC-OGkHX0ekNedTrzZ-8" value="实名认证服务" style="swimlane;whiteSpace=wrap;html=1;" vertex="1" parent="1">
          <mxGeometry x="400" y="40" width="190" height="660" as="geometry" />
        </mxCell>
        <mxCell id="AjmC-OGkHX0ekNedTrzZ-27" value="" style="edgeStyle=orthogonalEdgeStyle;rounded=0;orthogonalLoop=1;jettySize=auto;html=1;entryX=0.509;entryY=0.05;entryDx=0;entryDy=0;entryPerimeter=0;" edge="1" parent="AjmC-OGkHX0ekNedTrzZ-8" source="AjmC-OGkHX0ekNedTrzZ-24" target="AjmC-OGkHX0ekNedTrzZ-28">
          <mxGeometry relative="1" as="geometry">
            <mxPoint x="95" y="480" as="targetPoint" />
          </mxGeometry>
        </mxCell>
        <mxCell id="AjmC-OGkHX0ekNedTrzZ-24" value="视频认证" style="whiteSpace=wrap;html=1;verticalAlign=top;" vertex="1" parent="AjmC-OGkHX0ekNedTrzZ-8">
          <mxGeometry x="35" y="370" width="120" height="30" as="geometry" />
        </mxCell>
        <mxCell id="AjmC-OGkHX0ekNedTrzZ-37" value="否" style="edgeStyle=orthogonalEdgeStyle;rounded=0;orthogonalLoop=1;jettySize=auto;html=1;" edge="1" parent="AjmC-OGkHX0ekNedTrzZ-8" source="AjmC-OGkHX0ekNedTrzZ-28" target="AjmC-OGkHX0ekNedTrzZ-36">
          <mxGeometry relative="1" as="geometry" />
        </mxCell>
        <mxCell id="AjmC-OGkHX0ekNedTrzZ-28" value="认证通过" style="rhombus;whiteSpace=wrap;html=1;" vertex="1" parent="AjmC-OGkHX0ekNedTrzZ-8">
          <mxGeometry x="55" y="425" width="80" height="80" as="geometry" />
        </mxCell>
        <mxCell id="AjmC-OGkHX0ekNedTrzZ-38" value="是" style="edgeStyle=orthogonalEdgeStyle;rounded=0;orthogonalLoop=1;jettySize=auto;html=1;exitX=1;exitY=0.5;exitDx=0;exitDy=0;" edge="1" parent="AjmC-OGkHX0ekNedTrzZ-8" source="AjmC-OGkHX0ekNedTrzZ-36" target="AjmC-OGkHX0ekNedTrzZ-24">
          <mxGeometry relative="1" as="geometry">
            <mxPoint x="150" y="590" as="sourcePoint" />
            <mxPoint x="170" y="385" as="targetPoint" />
            <Array as="points">
              <mxPoint x="180" y="590" />
              <mxPoint x="180" y="385" />
            </Array>
          </mxGeometry>
        </mxCell>
        <mxCell id="AjmC-OGkHX0ekNedTrzZ-36" value="是否重试" style="rhombus;whiteSpace=wrap;html=1;" vertex="1" parent="AjmC-OGkHX0ekNedTrzZ-8">
          <mxGeometry x="55" y="550" width="80" height="80" as="geometry" />
        </mxCell>
        <mxCell id="AjmC-OGkHX0ekNedTrzZ-15" style="edgeStyle=orthogonalEdgeStyle;rounded=0;orthogonalLoop=1;jettySize=auto;html=1;entryX=0;entryY=0.5;entryDx=0;entryDy=0;" edge="1" parent="1" source="AjmC-OGkHX0ekNedTrzZ-14" target="AjmC-OGkHX0ekNedTrzZ-12">
          <mxGeometry relative="1" as="geometry" />
        </mxCell>
        <mxCell id="AjmC-OGkHX0ekNedTrzZ-16" value="是" style="edgeStyle=orthogonalEdgeStyle;rounded=0;orthogonalLoop=1;jettySize=auto;html=1;exitX=0.5;exitY=1;exitDx=0;exitDy=0;entryX=1;entryY=0.5;entryDx=0;entryDy=0;" edge="1" parent="1" source="AjmC-OGkHX0ekNedTrzZ-12" target="AjmC-OGkHX0ekNedTrzZ-18">
          <mxGeometry relative="1" as="geometry">
            <mxPoint x="190.03999999999996" y="362.87" as="targetPoint" />
            <mxPoint x="326" y="325" as="sourcePoint" />
            <Array as="points">
              <mxPoint x="305" y="365" />
            </Array>
          </mxGeometry>
        </mxCell>
        <mxCell id="AjmC-OGkHX0ekNedTrzZ-23" style="edgeStyle=orthogonalEdgeStyle;rounded=0;orthogonalLoop=1;jettySize=auto;html=1;entryX=0;entryY=0.5;entryDx=0;entryDy=0;exitX=0.5;exitY=1;exitDx=0;exitDy=0;" edge="1" parent="1" source="AjmC-OGkHX0ekNedTrzZ-18" target="AjmC-OGkHX0ekNedTrzZ-22">
          <mxGeometry relative="1" as="geometry" />
        </mxCell>
        <mxCell id="AjmC-OGkHX0ekNedTrzZ-25" style="edgeStyle=orthogonalEdgeStyle;rounded=0;orthogonalLoop=1;jettySize=auto;html=1;" edge="1" parent="1" source="AjmC-OGkHX0ekNedTrzZ-22" target="AjmC-OGkHX0ekNedTrzZ-24">
          <mxGeometry relative="1" as="geometry" />
        </mxCell>
        <mxCell id="AjmC-OGkHX0ekNedTrzZ-31" value="是" style="edgeStyle=orthogonalEdgeStyle;rounded=0;orthogonalLoop=1;jettySize=auto;html=1;exitX=0;exitY=0.5;exitDx=0;exitDy=0;" edge="1" parent="1" source="AjmC-OGkHX0ekNedTrzZ-28" target="AjmC-OGkHX0ekNedTrzZ-30">
          <mxGeometry relative="1" as="geometry" />
        </mxCell>
        <mxCell id="AjmC-OGkHX0ekNedTrzZ-34" value="" style="edgeStyle=orthogonalEdgeStyle;rounded=0;orthogonalLoop=1;jettySize=auto;html=1;" edge="1" parent="1" source="AjmC-OGkHX0ekNedTrzZ-30" target="AjmC-OGkHX0ekNedTrzZ-33">
          <mxGeometry relative="1" as="geometry" />
        </mxCell>
        <mxCell id="AjmC-OGkHX0ekNedTrzZ-39" value="否" style="edgeStyle=orthogonalEdgeStyle;rounded=0;orthogonalLoop=1;jettySize=auto;html=1;exitX=0;exitY=0.5;exitDx=0;exitDy=0;entryX=1;entryY=0.5;entryDx=0;entryDy=0;" edge="1" parent="1" source="AjmC-OGkHX0ekNedTrzZ-36" target="AjmC-OGkHX0ekNedTrzZ-33">
          <mxGeometry relative="1" as="geometry" />
        </mxCell>
        <mxCell id="AjmC-OGkHX0ekNedTrzZ-43" value="用户" style="swimlane;whiteSpace=wrap;html=1;" vertex="1" parent="1">
          <mxGeometry x="20" y="810" width="190" height="560" as="geometry" />
        </mxCell>
        <mxCell id="AjmC-OGkHX0ekNedTrzZ-44" value="" style="edgeStyle=orthogonalEdgeStyle;rounded=0;orthogonalLoop=1;jettySize=auto;html=1;" edge="1" parent="AjmC-OGkHX0ekNedTrzZ-43" source="AjmC-OGkHX0ekNedTrzZ-45" target="AjmC-OGkHX0ekNedTrzZ-47">
          <mxGeometry relative="1" as="geometry" />
        </mxCell>
        <mxCell id="AjmC-OGkHX0ekNedTrzZ-45" value="" style="shape=umlActor;verticalLabelPosition=bottom;verticalAlign=top;html=1;outlineConnect=0;" vertex="1" parent="AjmC-OGkHX0ekNedTrzZ-43">
          <mxGeometry x="80" y="30" width="20" height="30" as="geometry" />
        </mxCell>
        <mxCell id="AjmC-OGkHX0ekNedTrzZ-47" value="购物" style="whiteSpace=wrap;html=1;verticalAlign=top;" vertex="1" parent="AjmC-OGkHX0ekNedTrzZ-43">
          <mxGeometry x="30" y="90" width="120" height="30" as="geometry" />
        </mxCell>
        <mxCell id="AjmC-OGkHX0ekNedTrzZ-81" value="" style="edgeStyle=orthogonalEdgeStyle;rounded=0;orthogonalLoop=1;jettySize=auto;html=1;" edge="1" parent="AjmC-OGkHX0ekNedTrzZ-43" source="AjmC-OGkHX0ekNedTrzZ-78" target="AjmC-OGkHX0ekNedTrzZ-80">
          <mxGeometry relative="1" as="geometry" />
        </mxCell>
        <mxCell id="AjmC-OGkHX0ekNedTrzZ-78" value="发起消债" style="whiteSpace=wrap;html=1;verticalAlign=top;" vertex="1" parent="AjmC-OGkHX0ekNedTrzZ-43">
          <mxGeometry x="30" y="220" width="120" height="30" as="geometry" />
        </mxCell>
        <mxCell id="AjmC-OGkHX0ekNedTrzZ-80" value="生成消债请求" style="whiteSpace=wrap;html=1;verticalAlign=top;" vertex="1" parent="AjmC-OGkHX0ekNedTrzZ-43">
          <mxGeometry x="30" y="280" width="120" height="30" as="geometry" />
        </mxCell>
        <mxCell id="AjmC-OGkHX0ekNedTrzZ-90" value="" style="edgeStyle=orthogonalEdgeStyle;rounded=0;orthogonalLoop=1;jettySize=auto;html=1;" edge="1" parent="AjmC-OGkHX0ekNedTrzZ-43" source="AjmC-OGkHX0ekNedTrzZ-87" target="AjmC-OGkHX0ekNedTrzZ-89">
          <mxGeometry relative="1" as="geometry" />
        </mxCell>
        <mxCell id="AjmC-OGkHX0ekNedTrzZ-87" value="收到消债短信" style="whiteSpace=wrap;html=1;verticalAlign=top;" vertex="1" parent="AjmC-OGkHX0ekNedTrzZ-43">
          <mxGeometry x="35" y="390" width="120" height="30" as="geometry" />
        </mxCell>
        <mxCell id="AjmC-OGkHX0ekNedTrzZ-89" value="查看消债记录" style="whiteSpace=wrap;html=1;verticalAlign=top;" vertex="1" parent="AjmC-OGkHX0ekNedTrzZ-43">
          <mxGeometry x="35" y="500" width="120" height="30" as="geometry" />
        </mxCell>
        <mxCell id="AjmC-OGkHX0ekNedTrzZ-129" style="edgeStyle=orthogonalEdgeStyle;rounded=0;orthogonalLoop=1;jettySize=auto;html=1;exitX=0.5;exitY=1;exitDx=0;exitDy=0;" edge="1" parent="AjmC-OGkHX0ekNedTrzZ-43" source="AjmC-OGkHX0ekNedTrzZ-116" target="AjmC-OGkHX0ekNedTrzZ-78">
          <mxGeometry relative="1" as="geometry" />
        </mxCell>
        <mxCell id="AjmC-OGkHX0ekNedTrzZ-116" value="收到积分短信" style="whiteSpace=wrap;html=1;verticalAlign=top;" vertex="1" parent="AjmC-OGkHX0ekNedTrzZ-43">
          <mxGeometry x="30" y="160" width="120" height="30" as="geometry" />
        </mxCell>
        <mxCell id="AjmC-OGkHX0ekNedTrzZ-53" value="消消乐消分流程" style="text;html=1;strokeColor=none;fillColor=none;align=center;verticalAlign=middle;whiteSpace=wrap;rounded=0;" vertex="1" parent="1">
          <mxGeometry y="780" width="130" height="30" as="geometry" />
        </mxCell>
        <mxCell id="AjmC-OGkHX0ekNedTrzZ-54" value="电商平台" style="swimlane;whiteSpace=wrap;html=1;" vertex="1" parent="1">
          <mxGeometry x="210" y="810" width="190" height="560" as="geometry" />
        </mxCell>
        <mxCell id="AjmC-OGkHX0ekNedTrzZ-74" value="购物并确认收货7天" style="whiteSpace=wrap;html=1;verticalAlign=top;" vertex="1" parent="AjmC-OGkHX0ekNedTrzZ-54">
          <mxGeometry x="40" y="90" width="120" height="30" as="geometry" />
        </mxCell>
        <mxCell id="AjmC-OGkHX0ekNedTrzZ-64" value="消消乐平台" style="swimlane;whiteSpace=wrap;html=1;" vertex="1" parent="1">
          <mxGeometry x="400" y="810" width="190" height="560" as="geometry" />
        </mxCell>
        <mxCell id="AjmC-OGkHX0ekNedTrzZ-76" value="生成积分" style="whiteSpace=wrap;html=1;verticalAlign=top;" vertex="1" parent="AjmC-OGkHX0ekNedTrzZ-64">
          <mxGeometry x="40" y="90" width="120" height="30" as="geometry" />
        </mxCell>
        <mxCell id="AjmC-OGkHX0ekNedTrzZ-85" value="" style="edgeStyle=orthogonalEdgeStyle;rounded=0;orthogonalLoop=1;jettySize=auto;html=1;" edge="1" parent="AjmC-OGkHX0ekNedTrzZ-64" source="AjmC-OGkHX0ekNedTrzZ-82" target="AjmC-OGkHX0ekNedTrzZ-84">
          <mxGeometry relative="1" as="geometry" />
        </mxCell>
        <mxCell id="AjmC-OGkHX0ekNedTrzZ-82" value="消债结算" style="whiteSpace=wrap;html=1;verticalAlign=top;" vertex="1" parent="AjmC-OGkHX0ekNedTrzZ-64">
          <mxGeometry x="40" y="280" width="120" height="30" as="geometry" />
        </mxCell>
        <mxCell id="AjmC-OGkHX0ekNedTrzZ-84" value="生成消债报告" style="whiteSpace=wrap;html=1;verticalAlign=top;" vertex="1" parent="AjmC-OGkHX0ekNedTrzZ-64">
          <mxGeometry x="40" y="390" width="120" height="30" as="geometry" />
        </mxCell>
        <mxCell id="AjmC-OGkHX0ekNedTrzZ-91" value="显示消债记录" style="whiteSpace=wrap;html=1;verticalAlign=top;" vertex="1" parent="AjmC-OGkHX0ekNedTrzZ-64">
          <mxGeometry x="40" y="500" width="120" height="30" as="geometry" />
        </mxCell>
        <mxCell id="AjmC-OGkHX0ekNedTrzZ-75" value="" style="edgeStyle=orthogonalEdgeStyle;rounded=0;orthogonalLoop=1;jettySize=auto;html=1;" edge="1" parent="1" source="AjmC-OGkHX0ekNedTrzZ-47" target="AjmC-OGkHX0ekNedTrzZ-74">
          <mxGeometry relative="1" as="geometry" />
        </mxCell>
        <mxCell id="AjmC-OGkHX0ekNedTrzZ-77" value="" style="edgeStyle=orthogonalEdgeStyle;rounded=0;orthogonalLoop=1;jettySize=auto;html=1;" edge="1" parent="1" source="AjmC-OGkHX0ekNedTrzZ-74" target="AjmC-OGkHX0ekNedTrzZ-76">
          <mxGeometry relative="1" as="geometry" />
        </mxCell>
        <mxCell id="AjmC-OGkHX0ekNedTrzZ-79" value="" style="edgeStyle=orthogonalEdgeStyle;rounded=0;orthogonalLoop=1;jettySize=auto;html=1;entryX=1;entryY=0.5;entryDx=0;entryDy=0;exitX=0.5;exitY=1;exitDx=0;exitDy=0;" edge="1" parent="1" source="AjmC-OGkHX0ekNedTrzZ-76" target="AjmC-OGkHX0ekNedTrzZ-116">
          <mxGeometry relative="1" as="geometry" />
        </mxCell>
        <mxCell id="AjmC-OGkHX0ekNedTrzZ-83" value="" style="edgeStyle=orthogonalEdgeStyle;rounded=0;orthogonalLoop=1;jettySize=auto;html=1;" edge="1" parent="1" source="AjmC-OGkHX0ekNedTrzZ-80" target="AjmC-OGkHX0ekNedTrzZ-82">
          <mxGeometry relative="1" as="geometry" />
        </mxCell>
        <mxCell id="AjmC-OGkHX0ekNedTrzZ-88" value="" style="edgeStyle=orthogonalEdgeStyle;rounded=0;orthogonalLoop=1;jettySize=auto;html=1;" edge="1" parent="1" source="AjmC-OGkHX0ekNedTrzZ-84" target="AjmC-OGkHX0ekNedTrzZ-87">
          <mxGeometry relative="1" as="geometry" />
        </mxCell>
        <mxCell id="AjmC-OGkHX0ekNedTrzZ-92" value="" style="edgeStyle=orthogonalEdgeStyle;rounded=0;orthogonalLoop=1;jettySize=auto;html=1;" edge="1" parent="1" source="AjmC-OGkHX0ekNedTrzZ-89" target="AjmC-OGkHX0ekNedTrzZ-91">
          <mxGeometry relative="1" as="geometry" />
        </mxCell>
        <mxCell id="AjmC-OGkHX0ekNedTrzZ-93" value="鑫联鑫资产包接收流程" style="text;html=1;strokeColor=none;fillColor=none;align=center;verticalAlign=middle;whiteSpace=wrap;rounded=0;" vertex="1" parent="1">
          <mxGeometry x="20" y="1410" width="130" height="30" as="geometry" />
        </mxCell>
        <mxCell id="AjmC-OGkHX0ekNedTrzZ-94" value="债权人" style="swimlane;whiteSpace=wrap;html=1;" vertex="1" parent="1">
          <mxGeometry x="20" y="1440" width="190" height="490" as="geometry" />
        </mxCell>
        <mxCell id="AjmC-OGkHX0ekNedTrzZ-114" style="edgeStyle=orthogonalEdgeStyle;rounded=0;orthogonalLoop=1;jettySize=auto;html=1;exitX=0.5;exitY=1;exitDx=0;exitDy=0;" edge="1" parent="AjmC-OGkHX0ekNedTrzZ-94" source="AjmC-OGkHX0ekNedTrzZ-97" target="AjmC-OGkHX0ekNedTrzZ-99">
          <mxGeometry relative="1" as="geometry" />
        </mxCell>
        <mxCell id="AjmC-OGkHX0ekNedTrzZ-97" value="选择上传资产包" style="whiteSpace=wrap;html=1;verticalAlign=top;" vertex="1" parent="AjmC-OGkHX0ekNedTrzZ-94">
          <mxGeometry x="35" y="50" width="120" height="30" as="geometry" />
        </mxCell>
        <mxCell id="AjmC-OGkHX0ekNedTrzZ-115" style="edgeStyle=orthogonalEdgeStyle;rounded=0;orthogonalLoop=1;jettySize=auto;html=1;" edge="1" parent="AjmC-OGkHX0ekNedTrzZ-94" source="AjmC-OGkHX0ekNedTrzZ-99" target="AjmC-OGkHX0ekNedTrzZ-100">
          <mxGeometry relative="1" as="geometry" />
        </mxCell>
        <mxCell id="AjmC-OGkHX0ekNedTrzZ-99" value="解析资产包" style="whiteSpace=wrap;html=1;verticalAlign=top;" vertex="1" parent="AjmC-OGkHX0ekNedTrzZ-94">
          <mxGeometry x="35" y="130" width="120" height="30" as="geometry" />
        </mxCell>
        <mxCell id="AjmC-OGkHX0ekNedTrzZ-100" value="确认上传" style="whiteSpace=wrap;html=1;verticalAlign=top;" vertex="1" parent="AjmC-OGkHX0ekNedTrzZ-94">
          <mxGeometry x="35" y="210" width="120" height="30" as="geometry" />
        </mxCell>
        <mxCell id="AjmC-OGkHX0ekNedTrzZ-133" value="收到接收短信" style="whiteSpace=wrap;html=1;verticalAlign=top;" vertex="1" parent="AjmC-OGkHX0ekNedTrzZ-94">
          <mxGeometry x="35" y="352.5" width="120" height="30" as="geometry" />
        </mxCell>
        <mxCell id="AjmC-OGkHX0ekNedTrzZ-135" value="收到拒收短信" style="whiteSpace=wrap;html=1;verticalAlign=top;" vertex="1" parent="AjmC-OGkHX0ekNedTrzZ-94">
          <mxGeometry x="35" y="430" width="120" height="30" as="geometry" />
        </mxCell>
        <mxCell id="AjmC-OGkHX0ekNedTrzZ-104" value="鑫联鑫管理员" style="swimlane;whiteSpace=wrap;html=1;" vertex="1" parent="1">
          <mxGeometry x="210" y="1440" width="190" height="490" as="geometry" />
        </mxCell>
        <mxCell id="AjmC-OGkHX0ekNedTrzZ-108" value="" style="edgeStyle=orthogonalEdgeStyle;rounded=0;orthogonalLoop=1;jettySize=auto;html=1;" edge="1" parent="AjmC-OGkHX0ekNedTrzZ-104" source="AjmC-OGkHX0ekNedTrzZ-109" target="AjmC-OGkHX0ekNedTrzZ-110">
          <mxGeometry relative="1" as="geometry" />
        </mxCell>
        <mxCell id="AjmC-OGkHX0ekNedTrzZ-109" value="收到资产包短信通知" style="whiteSpace=wrap;html=1;verticalAlign=top;" vertex="1" parent="AjmC-OGkHX0ekNedTrzZ-104">
          <mxGeometry x="35" y="210" width="120" height="30" as="geometry" />
        </mxCell>
        <mxCell id="AjmC-OGkHX0ekNedTrzZ-132" value="" style="edgeStyle=orthogonalEdgeStyle;rounded=0;orthogonalLoop=1;jettySize=auto;html=1;" edge="1" parent="AjmC-OGkHX0ekNedTrzZ-104" source="AjmC-OGkHX0ekNedTrzZ-110" target="AjmC-OGkHX0ekNedTrzZ-131">
          <mxGeometry relative="1" as="geometry" />
        </mxCell>
        <mxCell id="AjmC-OGkHX0ekNedTrzZ-110" value="验收资产包" style="whiteSpace=wrap;html=1;verticalAlign=top;" vertex="1" parent="AjmC-OGkHX0ekNedTrzZ-104">
          <mxGeometry x="35" y="280" width="120" height="30" as="geometry" />
        </mxCell>
        <mxCell id="AjmC-OGkHX0ekNedTrzZ-131" value="是否接收" style="rhombus;whiteSpace=wrap;html=1;verticalAlign=middle;" vertex="1" parent="AjmC-OGkHX0ekNedTrzZ-104">
          <mxGeometry x="57.5" y="350" width="75" height="35" as="geometry" />
        </mxCell>
        <mxCell id="AjmC-OGkHX0ekNedTrzZ-130" style="edgeStyle=orthogonalEdgeStyle;rounded=0;orthogonalLoop=1;jettySize=auto;html=1;exitX=1;exitY=0.5;exitDx=0;exitDy=0;" edge="1" parent="1" source="AjmC-OGkHX0ekNedTrzZ-100" target="AjmC-OGkHX0ekNedTrzZ-109">
          <mxGeometry relative="1" as="geometry" />
        </mxCell>
        <mxCell id="AjmC-OGkHX0ekNedTrzZ-134" value="Y" style="edgeStyle=orthogonalEdgeStyle;rounded=0;orthogonalLoop=1;jettySize=auto;html=1;exitX=0;exitY=0.5;exitDx=0;exitDy=0;" edge="1" parent="1" source="AjmC-OGkHX0ekNedTrzZ-131" target="AjmC-OGkHX0ekNedTrzZ-133">
          <mxGeometry relative="1" as="geometry" />
        </mxCell>
        <mxCell id="AjmC-OGkHX0ekNedTrzZ-136" value="N" style="edgeStyle=orthogonalEdgeStyle;rounded=0;orthogonalLoop=1;jettySize=auto;html=1;exitX=0.5;exitY=1;exitDx=0;exitDy=0;entryX=1;entryY=0.5;entryDx=0;entryDy=0;" edge="1" parent="1" source="AjmC-OGkHX0ekNedTrzZ-131" target="AjmC-OGkHX0ekNedTrzZ-135">
          <mxGeometry relative="1" as="geometry" />
        </mxCell>
        <mxCell id="AjmC-OGkHX0ekNedTrzZ-160" value="" style="group" vertex="1" connectable="0" parent="1">
          <mxGeometry x="20" y="1960" width="510" height="370" as="geometry" />
        </mxCell>
        <mxCell id="AjmC-OGkHX0ekNedTrzZ-147" value="鑫联鑫" style="rounded=0;whiteSpace=wrap;html=1;" vertex="1" parent="AjmC-OGkHX0ekNedTrzZ-160">
          <mxGeometry y="170" width="90" height="60" as="geometry" />
        </mxCell>
        <mxCell id="AjmC-OGkHX0ekNedTrzZ-148" value="催收代理1&lt;br&gt;&lt;font style=&quot;font-size: 8px;&quot;&gt;普通催收公司&lt;/font&gt;" style="rounded=0;whiteSpace=wrap;html=1;" vertex="1" parent="AjmC-OGkHX0ekNedTrzZ-160">
          <mxGeometry x="260" y="40" width="120" height="60" as="geometry" />
        </mxCell>
        <mxCell id="AjmC-OGkHX0ekNedTrzZ-152" value="催收报告&lt;br style=&quot;border-color: var(--border-color);&quot;&gt;&lt;font style=&quot;border-color: var(--border-color); font-size: 8px;&quot;&gt;手动创建&lt;/font&gt;" style="rounded=0;orthogonalLoop=1;jettySize=auto;html=1;entryX=0;entryY=0.5;entryDx=0;entryDy=0;endArrow=none;endFill=0;startArrow=block;startFill=1;" edge="1" parent="AjmC-OGkHX0ekNedTrzZ-160" source="AjmC-OGkHX0ekNedTrzZ-147" target="AjmC-OGkHX0ekNedTrzZ-148">
          <mxGeometry relative="1" as="geometry" />
        </mxCell>
        <mxCell id="AjmC-OGkHX0ekNedTrzZ-149" value="催收代理2&lt;br&gt;&lt;font style=&quot;font-size: 8px;&quot;&gt;普通催收公司&lt;/font&gt;" style="rounded=0;whiteSpace=wrap;html=1;" vertex="1" parent="AjmC-OGkHX0ekNedTrzZ-160">
          <mxGeometry x="260" y="130" width="120" height="60" as="geometry" />
        </mxCell>
        <mxCell id="AjmC-OGkHX0ekNedTrzZ-153" value="催收报告&lt;br style=&quot;border-color: var(--border-color);&quot;&gt;&lt;font style=&quot;border-color: var(--border-color); font-size: 8px;&quot;&gt;手动创建&lt;/font&gt;" style="rounded=0;orthogonalLoop=1;jettySize=auto;html=1;endArrow=none;endFill=0;startArrow=block;startFill=1;" edge="1" parent="AjmC-OGkHX0ekNedTrzZ-160" source="AjmC-OGkHX0ekNedTrzZ-147" target="AjmC-OGkHX0ekNedTrzZ-149">
          <mxGeometry relative="1" as="geometry" />
        </mxCell>
        <mxCell id="AjmC-OGkHX0ekNedTrzZ-150" value="催收代理3&lt;br&gt;&lt;font style=&quot;font-size: 8px;&quot;&gt;调解中心&lt;/font&gt;" style="rounded=0;whiteSpace=wrap;html=1;" vertex="1" parent="AjmC-OGkHX0ekNedTrzZ-160">
          <mxGeometry x="260" y="220" width="120" height="60" as="geometry" />
        </mxCell>
        <mxCell id="AjmC-OGkHX0ekNedTrzZ-154" value="催收报告&lt;br&gt;&lt;font style=&quot;font-size: 8px;&quot;&gt;手动创建&lt;/font&gt;" style="rounded=0;orthogonalLoop=1;jettySize=auto;html=1;endArrow=none;endFill=0;startArrow=block;startFill=1;" edge="1" parent="AjmC-OGkHX0ekNedTrzZ-160" source="AjmC-OGkHX0ekNedTrzZ-147" target="AjmC-OGkHX0ekNedTrzZ-150">
          <mxGeometry relative="1" as="geometry" />
        </mxCell>
        <mxCell id="AjmC-OGkHX0ekNedTrzZ-151" value="催收代理4&lt;br&gt;&lt;font style=&quot;font-size: 8px;&quot;&gt;消消乐&lt;/font&gt;" style="rounded=0;whiteSpace=wrap;html=1;" vertex="1" parent="AjmC-OGkHX0ekNedTrzZ-160">
          <mxGeometry x="260" y="310" width="120" height="60" as="geometry" />
        </mxCell>
        <mxCell id="AjmC-OGkHX0ekNedTrzZ-155" value="催收报告&lt;br&gt;&lt;font style=&quot;font-size: 7px;&quot;&gt;自动生成&lt;/font&gt;" style="rounded=0;orthogonalLoop=1;jettySize=auto;html=1;entryX=0;entryY=0.5;entryDx=0;entryDy=0;endArrow=none;endFill=0;startArrow=block;startFill=1;" edge="1" parent="AjmC-OGkHX0ekNedTrzZ-160" source="AjmC-OGkHX0ekNedTrzZ-147" target="AjmC-OGkHX0ekNedTrzZ-151">
          <mxGeometry relative="1" as="geometry" />
        </mxCell>
        <mxCell id="AjmC-OGkHX0ekNedTrzZ-156" value="催收报告：&lt;br&gt;日期&lt;br&gt;动作&lt;br&gt;结果&lt;br&gt;状态&lt;br&gt;还债额&lt;br&gt;计划还债额&lt;br&gt;计划还债日期" style="shape=document;whiteSpace=wrap;html=1;boundedLbl=1;" vertex="1" parent="AjmC-OGkHX0ekNedTrzZ-160">
          <mxGeometry x="390" y="120" width="120" height="190" as="geometry" />
        </mxCell>
        <mxCell id="AjmC-OGkHX0ekNedTrzZ-159" value="鑫联鑫与催收代理的关系" style="text;html=1;strokeColor=none;fillColor=none;align=center;verticalAlign=middle;whiteSpace=wrap;rounded=0;" vertex="1" parent="AjmC-OGkHX0ekNedTrzZ-160">
          <mxGeometry width="140" height="30" as="geometry" />
        </mxCell>
      </root>
    </mxGraphModel>
  </diagram>
</mxfile>
